<?xml version="1.0" encoding="UTF-8"?>
<svg width="800" height="600" viewBox="0 0 800 600" fill="none" xmlns="http://www.w3.org/2000/svg">
  <!-- Background Circle -->
  <circle cx="400" cy="300" r="280" fill="#E5F3FF" opacity="0.3"/>
  
  <!-- Treatment Table -->
  <rect x="200" y="350" width="400" height="80" rx="10" fill="#A0D8EF"/>
  <rect x="220" y="430" width="20" height="60" rx="5" fill="#A0D8EF"/>
  <rect x="560" y="430" width="20" height="60" rx="5" fill="#A0D8EF"/>
  
  <!-- Patient -->
  <g transform="translate(250, 320)">
    <!-- Body -->
    <rect x="0" y="0" width="300" height="50" rx="25" fill="#4DB6AC"/>
    <!-- Head -->
    <circle cx="30" cy="25" r="20" fill="#FFB74D"/>
  </g>
  
  <!-- Physiotherapist -->
  <g transform="translate(500, 300)">
    <!-- Body -->
    <rect x="-40" y="0" width="80" height="120" rx="20" fill="#4FC3F7"/>
    <!-- Head -->
    <circle cx="0" cy="-20" r="25" fill="#FFB74D"/>
    <!-- Arms -->
    <path d="M -30 40 Q -60 60 -40 100" stroke="#4FC3F7" stroke-width="20" stroke-linecap="round"/>
    <path d="M 30 40 Q 60 60 40 100" stroke="#4FC3F7" stroke-width="20" stroke-linecap="round"/>
  </g>
  
  <!-- Medical Cabinet -->
  <g transform="translate(650, 150)">
    <rect x="0" y="0" width="80" height="120" rx="10" fill="#90CAF9"/>
    <!-- Shelves -->
    <rect x="5" y="30" width="70" height="2" fill="#64B5F6"/>
    <rect x="5" y="60" width="70" height="2" fill="#64B5F6"/>
    <rect x="5" y="90" width="70" height="2" fill="#64B5F6"/>
    <!-- Items -->
    <circle cx="20" cy="15" r="8" fill="#EF5350"/>
    <circle cx="40" cy="15" r="8" fill="#66BB6A"/>
    <circle cx="60" cy="15" r="8" fill="#42A5F5"/>
  </g>
  
  <!-- Plant -->
  <g transform="translate(100, 400)">
    <rect x="10" y="30" width="40" height="40" rx="5" fill="#4DB6AC"/>
    <path d="M 30 0 Q 10 30 30 50" stroke="#66BB6A" stroke-width="8" stroke-linecap="round"/>
    <path d="M 30 0 Q 50 30 30 50" stroke="#66BB6A" stroke-width="8" stroke-linecap="round"/>
    <path d="M 30 10 Q 10 40 30 60" stroke="#66BB6A" stroke-width="8" stroke-linecap="round"/>
  </g>
</svg> 