<svg xmlns="http://www.w3.org/2000/svg" width="800" height="600" viewBox="0 0 800 600">
  <style>
    .treatment-table { fill: #A0D8EF; }
    .patient { fill: #4DB6AC; }
    .therapist { fill: #4FC3F7; }
    .skin { fill: #FFB74D; }
    .cabinet { fill: #90CAF9; }
    .plant { fill: #66BB6A; }
    .bg-circle { fill: #E5F3FF; opacity: 0.3; }
  </style>
  
  <!-- Background -->
  <circle class="bg-circle" cx="400" cy="300" r="280"/>
  
  <!-- Treatment Table -->
  <path class="treatment-table" d="M200 350h400v80H200zM220 430h20v60h-20zM560 430h20v60h-20z"/>
  
  <!-- Patient -->
  <path class="patient" d="M250 320h300v50H250z" rx="25"/>
  <circle class="skin" cx="280" cy="345" r="20"/>
  
  <!-- Physiotherapist -->
  <g transform="translate(500,300)">
    <rect class="therapist" x="-40" y="0" width="80" height="120" rx="20"/>
    <circle class="skin" cx="0" cy="-20" r="25"/>
    <path class="therapist" d="M-30 40q-30 20-10 60M30 40q30 20 10 60" stroke-width="20" stroke-linecap="round"/>
  </g>
  
  <!-- Medical Cabinet -->
  <g transform="translate(650,150)">
    <rect class="cabinet" width="80" height="120" rx="10"/>
    <rect fill="#64B5F6" x="5" y="30" width="70" height="2"/>
    <rect fill="#64B5F6" x="5" y="60" width="70" height="2"/>
    <rect fill="#64B5F6" x="5" y="90" width="70" height="2"/>
    <circle fill="#EF5350" cx="20" cy="15" r="8"/>
    <circle fill="#66BB6A" cx="40" cy="15" r="8"/>
    <circle fill="#42A5F5" cx="60" cy="15" r="8"/>
  </g>
  
  <!-- Plant -->
  <g transform="translate(100,400)">
    <rect class="plant" x="10" y="30" width="40" height="40" rx="5"/>
    <path class="plant" d="M30 0q-20 30 0 50M30 0q20 30 0 50M30 10q-20 30 0 50" stroke-width="8" stroke-linecap="round"/>
  </g>
</svg> 